# xmcd
#
# Track frame offsets: 
#        150
#        19387
#        32660
#        54075
#        66525
#        88685
#        101250
#        123935
#        142987
#        159897
#        176509
#        184797
#
# Disc length: 2655 seconds
#
# Revision: 5
# Processed by: cddbd v1.5.2PL0 Copyright (c) Steve Scherf et al.
# Submitted via: ExactAudioCopy v0.99pb4
#
DISCID=940a5d0c
DTITLE=Lightnin' Hopkins - Autobiography in Blues
DYEAR=1960
DGENRE=Blues
TTITLE0=In the Evening, The Sun Is Going Down
TTITLE1=Trouble in Mind
TTITLE2=Mama and Papa Hopkins
TTITLE3=The Foot Race Is On
TTITLE4=That Gambling Life
TTITLE5=When the Saints Go Marching In
TTITLE6=Get Off My Toe
TTITLE7=75 Highway
TTITLE8=Bottle Up and Go
TTITLE9=Short Haired Woman
TTITLE10=So Long Baby
TTITLE11=Sante Fe Blues
EXTD=
EXTT0=
EXTT1=
EXTT2=
EXTT3=
EXTT4=
EXTT5=
EXTT6=
EXTT7=
EXTT8=
EXTT9=
EXTT10=
EXTT11=
PLAYORDER=
